<mxfile host="app.diagrams.net" agent="Mozilla/5.0 (Windows NT 10.0; Win64; x64) AppleWebKit/537.36 (KHTML, like Gecko) Chrome/130.0.0.0 Safari/537.36" version="24.7.17">
  <diagram name="Page-1" id="6tVxUhAqO4jmdp-snmKR">
    <mxGraphModel dx="3241" dy="2154" grid="1" gridSize="10" guides="1" tooltips="1" connect="1" arrows="1" fold="1" page="1" pageScale="1" pageWidth="850" pageHeight="1100" math="0" shadow="0">
      <root>
        <mxCell id="0" />
        <mxCell id="1" parent="0" />
        <mxCell id="z-LzonxKhmqKySFjynFF-2" value="Hotel" style="whiteSpace=wrap;html=1;align=center;" vertex="1" parent="1">
          <mxGeometry x="70" y="-75" width="140" height="85" as="geometry" />
        </mxCell>
        <mxCell id="z-LzonxKhmqKySFjynFF-3" value="Room" style="whiteSpace=wrap;html=1;align=center;" vertex="1" parent="1">
          <mxGeometry x="58.94" y="350" width="150" height="80" as="geometry" />
        </mxCell>
        <mxCell id="z-LzonxKhmqKySFjynFF-4" value="Guest" style="whiteSpace=wrap;html=1;align=center;" vertex="1" parent="1">
          <mxGeometry x="719.88" y="275" width="120" height="70" as="geometry" />
        </mxCell>
        <mxCell id="z-LzonxKhmqKySFjynFF-5" value="Booking" style="whiteSpace=wrap;html=1;align=center;" vertex="1" parent="1">
          <mxGeometry x="850" y="-75" width="150" height="90" as="geometry" />
        </mxCell>
        <mxCell id="z-LzonxKhmqKySFjynFF-6" value="Payment" style="whiteSpace=wrap;html=1;align=center;" vertex="1" parent="1">
          <mxGeometry x="1150" y="220" width="160" height="80" as="geometry" />
        </mxCell>
        <mxCell id="z-LzonxKhmqKySFjynFF-7" value="Staff" style="whiteSpace=wrap;html=1;align=center;" vertex="1" parent="1">
          <mxGeometry x="319.98" y="-470" width="130" height="70" as="geometry" />
        </mxCell>
        <mxCell id="z-LzonxKhmqKySFjynFF-10" value="hotel_id" style="ellipse;whiteSpace=wrap;html=1;align=center;fontStyle=4;" vertex="1" parent="1">
          <mxGeometry x="-90" y="-55" width="90" height="40" as="geometry" />
        </mxCell>
        <mxCell id="z-LzonxKhmqKySFjynFF-11" value="" style="endArrow=none;html=1;rounded=0;exitX=1;exitY=0.5;exitDx=0;exitDy=0;entryX=0;entryY=1;entryDx=0;entryDy=0;" edge="1" parent="1" source="z-LzonxKhmqKySFjynFF-10" target="z-LzonxKhmqKySFjynFF-2">
          <mxGeometry relative="1" as="geometry">
            <mxPoint x="150" y="15" as="sourcePoint" />
            <mxPoint x="310" y="15" as="targetPoint" />
          </mxGeometry>
        </mxCell>
        <mxCell id="z-LzonxKhmqKySFjynFF-12" value="name" style="ellipse;whiteSpace=wrap;html=1;align=center;" vertex="1" parent="1">
          <mxGeometry x="-80" y="-105" width="90" height="40" as="geometry" />
        </mxCell>
        <mxCell id="z-LzonxKhmqKySFjynFF-13" value="location" style="ellipse;whiteSpace=wrap;html=1;align=center;" vertex="1" parent="1">
          <mxGeometry x="-60" y="-155" width="100" height="40" as="geometry" />
        </mxCell>
        <mxCell id="z-LzonxKhmqKySFjynFF-14" value="contact_number" style="ellipse;whiteSpace=wrap;html=1;align=center;" vertex="1" parent="1">
          <mxGeometry x="50" y="-155" width="95" height="45" as="geometry" />
        </mxCell>
        <mxCell id="z-LzonxKhmqKySFjynFF-19" value="" style="endArrow=none;html=1;rounded=0;exitX=1;exitY=0.5;exitDx=0;exitDy=0;entryX=0;entryY=0.5;entryDx=0;entryDy=0;" edge="1" parent="1" source="z-LzonxKhmqKySFjynFF-12" target="z-LzonxKhmqKySFjynFF-2">
          <mxGeometry relative="1" as="geometry">
            <mxPoint x="150" y="15" as="sourcePoint" />
            <mxPoint x="310" y="15" as="targetPoint" />
          </mxGeometry>
        </mxCell>
        <mxCell id="z-LzonxKhmqKySFjynFF-20" value="" style="endArrow=none;html=1;rounded=0;exitX=1;exitY=1;exitDx=0;exitDy=0;entryX=0;entryY=0;entryDx=0;entryDy=0;" edge="1" parent="1" source="z-LzonxKhmqKySFjynFF-13" target="z-LzonxKhmqKySFjynFF-2">
          <mxGeometry relative="1" as="geometry">
            <mxPoint x="160" y="25" as="sourcePoint" />
            <mxPoint x="320" y="25" as="targetPoint" />
          </mxGeometry>
        </mxCell>
        <mxCell id="z-LzonxKhmqKySFjynFF-21" value="" style="endArrow=none;html=1;rounded=0;exitX=0.5;exitY=1;exitDx=0;exitDy=0;entryX=0.25;entryY=0;entryDx=0;entryDy=0;" edge="1" parent="1" source="z-LzonxKhmqKySFjynFF-14" target="z-LzonxKhmqKySFjynFF-2">
          <mxGeometry relative="1" as="geometry">
            <mxPoint x="170" y="35" as="sourcePoint" />
            <mxPoint x="330" y="35" as="targetPoint" />
          </mxGeometry>
        </mxCell>
        <mxCell id="z-LzonxKhmqKySFjynFF-22" value="" style="endArrow=none;html=1;rounded=0;exitX=0.36;exitY=0.95;exitDx=0;exitDy=0;entryX=0.75;entryY=0;entryDx=0;entryDy=0;exitPerimeter=0;" edge="1" parent="1" source="z-LzonxKhmqKySFjynFF-23" target="z-LzonxKhmqKySFjynFF-2">
          <mxGeometry relative="1" as="geometry">
            <mxPoint x="174.64466094067257" y="-125.85786437626916" as="sourcePoint" />
            <mxPoint x="340" y="45" as="targetPoint" />
          </mxGeometry>
        </mxCell>
        <mxCell id="z-LzonxKhmqKySFjynFF-23" value="rating" style="ellipse;whiteSpace=wrap;html=1;align=center;" vertex="1" parent="1">
          <mxGeometry x="145" y="-170" width="100" height="40" as="geometry" />
        </mxCell>
        <mxCell id="z-LzonxKhmqKySFjynFF-24" value="room_id" style="ellipse;whiteSpace=wrap;html=1;align=center;fontStyle=4;" vertex="1" parent="1">
          <mxGeometry x="-91.06" y="340" width="100" height="40" as="geometry" />
        </mxCell>
        <mxCell id="z-LzonxKhmqKySFjynFF-26" value="room_number" style="ellipse;whiteSpace=wrap;html=1;align=center;" vertex="1" parent="1">
          <mxGeometry x="-91.06" y="390" width="100" height="40" as="geometry" />
        </mxCell>
        <mxCell id="z-LzonxKhmqKySFjynFF-27" value="price_per_night" style="ellipse;whiteSpace=wrap;html=1;align=center;" vertex="1" parent="1">
          <mxGeometry x="-91.06" y="490" width="100" height="40" as="geometry" />
        </mxCell>
        <mxCell id="z-LzonxKhmqKySFjynFF-28" value="availability_status" style="ellipse;whiteSpace=wrap;html=1;align=center;" vertex="1" parent="1">
          <mxGeometry x="23.94" y="500" width="100" height="40" as="geometry" />
        </mxCell>
        <mxCell id="z-LzonxKhmqKySFjynFF-29" value="type" style="ellipse;whiteSpace=wrap;html=1;align=center;" vertex="1" parent="1">
          <mxGeometry x="-91.06" y="440" width="100" height="40" as="geometry" />
        </mxCell>
        <mxCell id="z-LzonxKhmqKySFjynFF-31" value="" style="endArrow=none;html=1;rounded=0;exitX=1;exitY=0.5;exitDx=0;exitDy=0;entryX=0;entryY=0;entryDx=0;entryDy=0;" edge="1" parent="1" source="z-LzonxKhmqKySFjynFF-24" target="z-LzonxKhmqKySFjynFF-3">
          <mxGeometry relative="1" as="geometry">
            <mxPoint x="348.94" y="320" as="sourcePoint" />
            <mxPoint x="508.94" y="320" as="targetPoint" />
          </mxGeometry>
        </mxCell>
        <mxCell id="z-LzonxKhmqKySFjynFF-32" value="" style="endArrow=none;html=1;rounded=0;exitX=1;exitY=0.5;exitDx=0;exitDy=0;entryX=0;entryY=0.25;entryDx=0;entryDy=0;" edge="1" parent="1" source="z-LzonxKhmqKySFjynFF-26" target="z-LzonxKhmqKySFjynFF-3">
          <mxGeometry relative="1" as="geometry">
            <mxPoint x="358.94" y="330" as="sourcePoint" />
            <mxPoint x="518.94" y="330" as="targetPoint" />
          </mxGeometry>
        </mxCell>
        <mxCell id="z-LzonxKhmqKySFjynFF-33" value="" style="endArrow=none;html=1;rounded=0;exitX=1;exitY=0;exitDx=0;exitDy=0;entryX=0;entryY=0.5;entryDx=0;entryDy=0;" edge="1" parent="1" source="z-LzonxKhmqKySFjynFF-29" target="z-LzonxKhmqKySFjynFF-3">
          <mxGeometry relative="1" as="geometry">
            <mxPoint x="368.94" y="340" as="sourcePoint" />
            <mxPoint x="528.94" y="340" as="targetPoint" />
          </mxGeometry>
        </mxCell>
        <mxCell id="z-LzonxKhmqKySFjynFF-34" value="" style="endArrow=none;html=1;rounded=0;exitX=1;exitY=0;exitDx=0;exitDy=0;entryX=0;entryY=1;entryDx=0;entryDy=0;" edge="1" parent="1" source="z-LzonxKhmqKySFjynFF-27" target="z-LzonxKhmqKySFjynFF-3">
          <mxGeometry relative="1" as="geometry">
            <mxPoint x="378.94" y="350" as="sourcePoint" />
            <mxPoint x="538.94" y="350" as="targetPoint" />
          </mxGeometry>
        </mxCell>
        <mxCell id="z-LzonxKhmqKySFjynFF-35" value="" style="endArrow=none;html=1;rounded=0;exitX=0.31;exitY=0.075;exitDx=0;exitDy=0;exitPerimeter=0;entryX=0.25;entryY=1;entryDx=0;entryDy=0;" edge="1" parent="1" source="z-LzonxKhmqKySFjynFF-28" target="z-LzonxKhmqKySFjynFF-3">
          <mxGeometry relative="1" as="geometry">
            <mxPoint x="388.94" y="360" as="sourcePoint" />
            <mxPoint x="548.94" y="360" as="targetPoint" />
          </mxGeometry>
        </mxCell>
        <mxCell id="z-LzonxKhmqKySFjynFF-37" value="guest_id" style="ellipse;whiteSpace=wrap;html=1;align=center;fontStyle=4;" vertex="1" parent="1">
          <mxGeometry x="569.88" y="265" width="100" height="40" as="geometry" />
        </mxCell>
        <mxCell id="z-LzonxKhmqKySFjynFF-38" value="id_proof_info" style="ellipse;whiteSpace=wrap;html=1;align=center;" vertex="1" parent="1">
          <mxGeometry x="699.88" y="395" width="100" height="40" as="geometry" />
        </mxCell>
        <mxCell id="z-LzonxKhmqKySFjynFF-39" value="contact" style="ellipse;whiteSpace=wrap;html=1;align=center;" vertex="1" parent="1">
          <mxGeometry x="579.88" y="395" width="100" height="40" as="geometry" />
        </mxCell>
        <mxCell id="z-LzonxKhmqKySFjynFF-40" value="name" style="ellipse;whiteSpace=wrap;html=1;align=center;" vertex="1" parent="1">
          <mxGeometry x="574.88" y="325" width="100" height="40" as="geometry" />
        </mxCell>
        <mxCell id="z-LzonxKhmqKySFjynFF-41" value="" style="endArrow=none;html=1;rounded=0;exitX=1;exitY=0.5;exitDx=0;exitDy=0;entryX=0;entryY=0;entryDx=0;entryDy=0;" edge="1" parent="1" source="z-LzonxKhmqKySFjynFF-37" target="z-LzonxKhmqKySFjynFF-4">
          <mxGeometry relative="1" as="geometry">
            <mxPoint x="999.88" y="245" as="sourcePoint" />
            <mxPoint x="1159.88" y="245" as="targetPoint" />
          </mxGeometry>
        </mxCell>
        <mxCell id="z-LzonxKhmqKySFjynFF-42" value="" style="endArrow=none;html=1;rounded=0;exitX=1;exitY=0;exitDx=0;exitDy=0;entryX=0;entryY=0.5;entryDx=0;entryDy=0;" edge="1" parent="1" source="z-LzonxKhmqKySFjynFF-40" target="z-LzonxKhmqKySFjynFF-4">
          <mxGeometry relative="1" as="geometry">
            <mxPoint x="1009.88" y="255" as="sourcePoint" />
            <mxPoint x="1169.88" y="255" as="targetPoint" />
          </mxGeometry>
        </mxCell>
        <mxCell id="z-LzonxKhmqKySFjynFF-43" value="" style="endArrow=none;html=1;rounded=0;exitX=1;exitY=0;exitDx=0;exitDy=0;entryX=0;entryY=1;entryDx=0;entryDy=0;" edge="1" parent="1" source="z-LzonxKhmqKySFjynFF-39" target="z-LzonxKhmqKySFjynFF-4">
          <mxGeometry relative="1" as="geometry">
            <mxPoint x="1019.88" y="265" as="sourcePoint" />
            <mxPoint x="1179.88" y="265" as="targetPoint" />
          </mxGeometry>
        </mxCell>
        <mxCell id="z-LzonxKhmqKySFjynFF-44" value="" style="endArrow=none;html=1;rounded=0;exitX=0.5;exitY=0;exitDx=0;exitDy=0;entryX=0.25;entryY=1;entryDx=0;entryDy=0;" edge="1" parent="1" source="z-LzonxKhmqKySFjynFF-38" target="z-LzonxKhmqKySFjynFF-4">
          <mxGeometry relative="1" as="geometry">
            <mxPoint x="1029.88" y="275" as="sourcePoint" />
            <mxPoint x="1189.88" y="275" as="targetPoint" />
          </mxGeometry>
        </mxCell>
        <mxCell id="z-LzonxKhmqKySFjynFF-45" value="booking_id" style="ellipse;whiteSpace=wrap;html=1;align=center;fontStyle=4;" vertex="1" parent="1">
          <mxGeometry x="840" y="-180" width="100" height="40" as="geometry" />
        </mxCell>
        <mxCell id="z-LzonxKhmqKySFjynFF-46" value="total_cost" style="ellipse;whiteSpace=wrap;html=1;align=center;" vertex="1" parent="1">
          <mxGeometry x="1060" y="-55" width="100" height="40" as="geometry" />
        </mxCell>
        <mxCell id="z-LzonxKhmqKySFjynFF-47" value="status" style="ellipse;whiteSpace=wrap;html=1;align=center;" vertex="1" parent="1">
          <mxGeometry x="1040" y="-115" width="100" height="40" as="geometry" />
        </mxCell>
        <mxCell id="z-LzonxKhmqKySFjynFF-48" value="check_out_date" style="ellipse;whiteSpace=wrap;html=1;align=center;" vertex="1" parent="1">
          <mxGeometry x="1060" y="-220" width="100" height="40" as="geometry" />
        </mxCell>
        <mxCell id="z-LzonxKhmqKySFjynFF-49" value="check_in_date" style="ellipse;whiteSpace=wrap;html=1;align=center;" vertex="1" parent="1">
          <mxGeometry x="980" y="-270" width="100" height="40" as="geometry" />
        </mxCell>
        <mxCell id="z-LzonxKhmqKySFjynFF-50" value="booking_date" style="ellipse;whiteSpace=wrap;html=1;align=center;" vertex="1" parent="1">
          <mxGeometry x="940" y="-155" width="100" height="40" as="geometry" />
        </mxCell>
        <mxCell id="z-LzonxKhmqKySFjynFF-53" value="" style="endArrow=none;html=1;rounded=0;entryX=0.5;entryY=1;entryDx=0;entryDy=0;" edge="1" parent="1" source="z-LzonxKhmqKySFjynFF-5" target="z-LzonxKhmqKySFjynFF-45">
          <mxGeometry relative="1" as="geometry">
            <mxPoint x="660" y="-95.5" as="sourcePoint" />
            <mxPoint x="820" y="-95.5" as="targetPoint" />
          </mxGeometry>
        </mxCell>
        <mxCell id="z-LzonxKhmqKySFjynFF-54" value="" style="endArrow=none;html=1;rounded=0;exitX=0.5;exitY=1;exitDx=0;exitDy=0;entryX=0.5;entryY=0;entryDx=0;entryDy=0;" edge="1" parent="1" source="z-LzonxKhmqKySFjynFF-50" target="z-LzonxKhmqKySFjynFF-5">
          <mxGeometry relative="1" as="geometry">
            <mxPoint x="670" y="-85.5" as="sourcePoint" />
            <mxPoint x="830" y="-85.5" as="targetPoint" />
          </mxGeometry>
        </mxCell>
        <mxCell id="z-LzonxKhmqKySFjynFF-55" value="" style="endArrow=none;html=1;rounded=0;exitX=0;exitY=1;exitDx=0;exitDy=0;entryX=0.5;entryY=0;entryDx=0;entryDy=0;" edge="1" parent="1" source="z-LzonxKhmqKySFjynFF-49" target="z-LzonxKhmqKySFjynFF-50">
          <mxGeometry relative="1" as="geometry">
            <mxPoint x="680" y="-75.5" as="sourcePoint" />
            <mxPoint x="840" y="-75.5" as="targetPoint" />
          </mxGeometry>
        </mxCell>
        <mxCell id="z-LzonxKhmqKySFjynFF-56" value="" style="endArrow=none;html=1;rounded=0;exitX=0;exitY=0.5;exitDx=0;exitDy=0;entryX=1;entryY=0;entryDx=0;entryDy=0;" edge="1" parent="1" source="z-LzonxKhmqKySFjynFF-48" target="z-LzonxKhmqKySFjynFF-50">
          <mxGeometry relative="1" as="geometry">
            <mxPoint x="690" y="-65.5" as="sourcePoint" />
            <mxPoint x="850" y="-65.5" as="targetPoint" />
          </mxGeometry>
        </mxCell>
        <mxCell id="z-LzonxKhmqKySFjynFF-57" value="" style="endArrow=none;html=1;rounded=0;exitX=0;exitY=0.5;exitDx=0;exitDy=0;entryX=1;entryY=0.25;entryDx=0;entryDy=0;" edge="1" parent="1" source="z-LzonxKhmqKySFjynFF-47" target="z-LzonxKhmqKySFjynFF-5">
          <mxGeometry relative="1" as="geometry">
            <mxPoint x="700" y="-55.5" as="sourcePoint" />
            <mxPoint x="860" y="-55.5" as="targetPoint" />
          </mxGeometry>
        </mxCell>
        <mxCell id="z-LzonxKhmqKySFjynFF-58" value="" style="endArrow=none;html=1;rounded=0;exitX=0;exitY=0.5;exitDx=0;exitDy=0;entryX=1;entryY=0.75;entryDx=0;entryDy=0;" edge="1" parent="1" source="z-LzonxKhmqKySFjynFF-46" target="z-LzonxKhmqKySFjynFF-5">
          <mxGeometry relative="1" as="geometry">
            <mxPoint x="710" y="-45.5" as="sourcePoint" />
            <mxPoint x="990" y="-15" as="targetPoint" />
          </mxGeometry>
        </mxCell>
        <mxCell id="z-LzonxKhmqKySFjynFF-61" value="payment_id" style="ellipse;whiteSpace=wrap;html=1;align=center;fontStyle=4;" vertex="1" parent="1">
          <mxGeometry x="1370" y="180" width="100" height="40" as="geometry" />
        </mxCell>
        <mxCell id="z-LzonxKhmqKySFjynFF-62" value="method" style="ellipse;whiteSpace=wrap;html=1;align=center;" vertex="1" parent="1">
          <mxGeometry x="1360" y="360" width="100" height="40" as="geometry" />
        </mxCell>
        <mxCell id="z-LzonxKhmqKySFjynFF-63" value="amount" style="ellipse;whiteSpace=wrap;html=1;align=center;" vertex="1" parent="1">
          <mxGeometry x="1380" y="300" width="100" height="40" as="geometry" />
        </mxCell>
        <mxCell id="z-LzonxKhmqKySFjynFF-64" value="payment_date" style="ellipse;whiteSpace=wrap;html=1;align=center;" vertex="1" parent="1">
          <mxGeometry x="1380" y="240" width="100" height="40" as="geometry" />
        </mxCell>
        <mxCell id="z-LzonxKhmqKySFjynFF-67" value="" style="endArrow=none;html=1;rounded=0;entryX=0;entryY=0;entryDx=0;entryDy=0;exitX=1;exitY=1;exitDx=0;exitDy=0;" edge="1" parent="1" source="z-LzonxKhmqKySFjynFF-6" target="z-LzonxKhmqKySFjynFF-62">
          <mxGeometry relative="1" as="geometry">
            <mxPoint x="1190" y="160" as="sourcePoint" />
            <mxPoint x="1360" y="130" as="targetPoint" />
          </mxGeometry>
        </mxCell>
        <mxCell id="z-LzonxKhmqKySFjynFF-69" value="" style="endArrow=none;html=1;rounded=0;entryX=0;entryY=0;entryDx=0;entryDy=0;exitX=1;exitY=0.75;exitDx=0;exitDy=0;" edge="1" parent="1" source="z-LzonxKhmqKySFjynFF-6" target="z-LzonxKhmqKySFjynFF-63">
          <mxGeometry relative="1" as="geometry">
            <mxPoint x="1210" y="180" as="sourcePoint" />
            <mxPoint x="1370" y="180" as="targetPoint" />
          </mxGeometry>
        </mxCell>
        <mxCell id="z-LzonxKhmqKySFjynFF-70" value="" style="endArrow=none;html=1;rounded=0;entryX=0;entryY=0.5;entryDx=0;entryDy=0;exitX=1;exitY=0.338;exitDx=0;exitDy=0;exitPerimeter=0;" edge="1" parent="1" source="z-LzonxKhmqKySFjynFF-6" target="z-LzonxKhmqKySFjynFF-64">
          <mxGeometry relative="1" as="geometry">
            <mxPoint x="1220" y="190" as="sourcePoint" />
            <mxPoint x="1380" y="190" as="targetPoint" />
          </mxGeometry>
        </mxCell>
        <mxCell id="z-LzonxKhmqKySFjynFF-71" value="" style="endArrow=none;html=1;rounded=0;entryX=0;entryY=0.5;entryDx=0;entryDy=0;exitX=1;exitY=0;exitDx=0;exitDy=0;" edge="1" parent="1" source="z-LzonxKhmqKySFjynFF-6" target="z-LzonxKhmqKySFjynFF-61">
          <mxGeometry relative="1" as="geometry">
            <mxPoint x="1230" y="200" as="sourcePoint" />
            <mxPoint x="1390" y="200" as="targetPoint" />
          </mxGeometry>
        </mxCell>
        <mxCell id="z-LzonxKhmqKySFjynFF-72" value="staff_id" style="ellipse;whiteSpace=wrap;html=1;align=center;fontStyle=4;" vertex="1" parent="1">
          <mxGeometry x="449.98" y="-530" width="100" height="40" as="geometry" />
        </mxCell>
        <mxCell id="z-LzonxKhmqKySFjynFF-73" value="contact_number" style="ellipse;whiteSpace=wrap;html=1;align=center;" vertex="1" parent="1">
          <mxGeometry x="479.98" y="-380" width="100" height="40" as="geometry" />
        </mxCell>
        <mxCell id="z-LzonxKhmqKySFjynFF-74" value="position" style="ellipse;whiteSpace=wrap;html=1;align=center;" vertex="1" parent="1">
          <mxGeometry x="489.98" y="-430" width="100" height="40" as="geometry" />
        </mxCell>
        <mxCell id="z-LzonxKhmqKySFjynFF-75" value="name" style="ellipse;whiteSpace=wrap;html=1;align=center;" vertex="1" parent="1">
          <mxGeometry x="479.98" y="-480" width="100" height="40" as="geometry" />
        </mxCell>
        <mxCell id="z-LzonxKhmqKySFjynFF-78" value="" style="endArrow=none;html=1;rounded=0;entryX=0;entryY=0.5;entryDx=0;entryDy=0;exitX=0.75;exitY=0;exitDx=0;exitDy=0;" edge="1" parent="1" source="z-LzonxKhmqKySFjynFF-7" target="z-LzonxKhmqKySFjynFF-72">
          <mxGeometry relative="1" as="geometry">
            <mxPoint x="219.98000000000002" y="-560" as="sourcePoint" />
            <mxPoint x="379.98" y="-560" as="targetPoint" />
          </mxGeometry>
        </mxCell>
        <mxCell id="z-LzonxKhmqKySFjynFF-79" value="" style="endArrow=none;html=1;rounded=0;entryX=0;entryY=0.5;entryDx=0;entryDy=0;exitX=1;exitY=0.25;exitDx=0;exitDy=0;" edge="1" parent="1" source="z-LzonxKhmqKySFjynFF-7" target="z-LzonxKhmqKySFjynFF-75">
          <mxGeometry relative="1" as="geometry">
            <mxPoint x="229.98000000000002" y="-550" as="sourcePoint" />
            <mxPoint x="389.98" y="-550" as="targetPoint" />
          </mxGeometry>
        </mxCell>
        <mxCell id="z-LzonxKhmqKySFjynFF-80" value="" style="endArrow=none;html=1;rounded=0;entryX=0;entryY=0;entryDx=0;entryDy=0;exitX=1;exitY=0.75;exitDx=0;exitDy=0;" edge="1" parent="1" source="z-LzonxKhmqKySFjynFF-7" target="z-LzonxKhmqKySFjynFF-74">
          <mxGeometry relative="1" as="geometry">
            <mxPoint x="239.98000000000002" y="-540" as="sourcePoint" />
            <mxPoint x="399.98" y="-540" as="targetPoint" />
          </mxGeometry>
        </mxCell>
        <mxCell id="z-LzonxKhmqKySFjynFF-81" value="" style="endArrow=none;html=1;rounded=0;entryX=0;entryY=0;entryDx=0;entryDy=0;" edge="1" parent="1" target="z-LzonxKhmqKySFjynFF-73">
          <mxGeometry relative="1" as="geometry">
            <mxPoint x="449.98" y="-400" as="sourcePoint" />
            <mxPoint x="409.98" y="-530" as="targetPoint" />
          </mxGeometry>
        </mxCell>
        <mxCell id="z-LzonxKhmqKySFjynFF-83" value="review_id" style="ellipse;whiteSpace=wrap;html=1;align=center;fontStyle=4;" vertex="1" parent="1">
          <mxGeometry x="925" y="530" width="100" height="40" as="geometry" />
        </mxCell>
        <mxCell id="z-LzonxKhmqKySFjynFF-84" value="rating" style="ellipse;whiteSpace=wrap;html=1;align=center;" vertex="1" parent="1">
          <mxGeometry x="965.02" y="580" width="100" height="40" as="geometry" />
        </mxCell>
        <mxCell id="z-LzonxKhmqKySFjynFF-85" value="comments" style="ellipse;whiteSpace=wrap;html=1;align=center;" vertex="1" parent="1">
          <mxGeometry x="965.02" y="630" width="100" height="40" as="geometry" />
        </mxCell>
        <mxCell id="z-LzonxKhmqKySFjynFF-86" value="date" style="ellipse;whiteSpace=wrap;html=1;align=center;" vertex="1" parent="1">
          <mxGeometry x="965.02" y="680" width="100" height="40" as="geometry" />
        </mxCell>
        <mxCell id="z-LzonxKhmqKySFjynFF-90" value="" style="endArrow=none;html=1;rounded=0;entryX=0;entryY=0.5;entryDx=0;entryDy=0;" edge="1" parent="1" target="z-LzonxKhmqKySFjynFF-83">
          <mxGeometry relative="1" as="geometry">
            <mxPoint x="888.02" y="610" as="sourcePoint" />
            <mxPoint x="525.02" y="710" as="targetPoint" />
          </mxGeometry>
        </mxCell>
        <mxCell id="z-LzonxKhmqKySFjynFF-91" value="" style="endArrow=none;html=1;rounded=0;entryX=0;entryY=0.5;entryDx=0;entryDy=0;exitX=1;exitY=0;exitDx=0;exitDy=0;" edge="1" parent="1" target="z-LzonxKhmqKySFjynFF-84">
          <mxGeometry relative="1" as="geometry">
            <mxPoint x="920.02" y="610" as="sourcePoint" />
            <mxPoint x="535.02" y="720" as="targetPoint" />
          </mxGeometry>
        </mxCell>
        <mxCell id="z-LzonxKhmqKySFjynFF-92" value="" style="endArrow=none;html=1;rounded=0;entryX=0;entryY=0.5;entryDx=0;entryDy=0;exitX=1;exitY=0.5;exitDx=0;exitDy=0;" edge="1" parent="1" target="z-LzonxKhmqKySFjynFF-85">
          <mxGeometry relative="1" as="geometry">
            <mxPoint x="920.02" y="650" as="sourcePoint" />
            <mxPoint x="545.02" y="730" as="targetPoint" />
          </mxGeometry>
        </mxCell>
        <mxCell id="z-LzonxKhmqKySFjynFF-93" value="" style="endArrow=none;html=1;rounded=0;entryX=0;entryY=0;entryDx=0;entryDy=0;exitX=0.995;exitY=0.912;exitDx=0;exitDy=0;exitPerimeter=0;" edge="1" parent="1" target="z-LzonxKhmqKySFjynFF-86">
          <mxGeometry relative="1" as="geometry">
            <mxPoint x="919.3200000000002" y="682.96" as="sourcePoint" />
            <mxPoint x="555.02" y="740" as="targetPoint" />
          </mxGeometry>
        </mxCell>
        <mxCell id="z-LzonxKhmqKySFjynFF-97" value="Have" style="shape=rhombus;perimeter=rhombusPerimeter;whiteSpace=wrap;html=1;align=center;rotation=0;" vertex="1" parent="1">
          <mxGeometry x="70" y="140" width="120" height="60" as="geometry" />
        </mxCell>
        <mxCell id="z-LzonxKhmqKySFjynFF-98" value="" style="endArrow=none;html=1;rounded=0;exitX=0.5;exitY=0;exitDx=0;exitDy=0;entryX=0.364;entryY=1.024;entryDx=0;entryDy=0;entryPerimeter=0;" edge="1" parent="1" source="z-LzonxKhmqKySFjynFF-97" target="z-LzonxKhmqKySFjynFF-2">
          <mxGeometry relative="1" as="geometry">
            <mxPoint x="560" y="90" as="sourcePoint" />
            <mxPoint x="720" y="90" as="targetPoint" />
          </mxGeometry>
        </mxCell>
        <mxCell id="z-LzonxKhmqKySFjynFF-99" value="1" style="resizable=0;html=1;whiteSpace=wrap;align=right;verticalAlign=bottom;" connectable="0" vertex="1" parent="z-LzonxKhmqKySFjynFF-98">
          <mxGeometry x="1" relative="1" as="geometry">
            <mxPoint x="-8" y="15" as="offset" />
          </mxGeometry>
        </mxCell>
        <mxCell id="z-LzonxKhmqKySFjynFF-100" value="" style="endArrow=none;html=1;rounded=0;entryX=0.5;entryY=0;entryDx=0;entryDy=0;exitX=0.5;exitY=1;exitDx=0;exitDy=0;" edge="1" parent="1" source="z-LzonxKhmqKySFjynFF-97" target="z-LzonxKhmqKySFjynFF-3">
          <mxGeometry relative="1" as="geometry">
            <mxPoint x="30" y="200" as="sourcePoint" />
            <mxPoint x="190" y="200" as="targetPoint" />
          </mxGeometry>
        </mxCell>
        <mxCell id="z-LzonxKhmqKySFjynFF-101" value="N" style="resizable=0;html=1;whiteSpace=wrap;align=right;verticalAlign=bottom;" connectable="0" vertex="1" parent="z-LzonxKhmqKySFjynFF-100">
          <mxGeometry x="1" relative="1" as="geometry" />
        </mxCell>
        <mxCell id="z-LzonxKhmqKySFjynFF-102" value="Have" style="shape=rhombus;perimeter=rhombusPerimeter;whiteSpace=wrap;html=1;align=center;rotation=0;" vertex="1" parent="1">
          <mxGeometry x="799.88" y="100" width="85" height="60" as="geometry" />
        </mxCell>
        <mxCell id="z-LzonxKhmqKySFjynFF-103" value="" style="endArrow=none;html=1;rounded=0;entryX=1;entryY=0;entryDx=0;entryDy=0;exitX=0.5;exitY=1;exitDx=0;exitDy=0;" edge="1" parent="1" source="z-LzonxKhmqKySFjynFF-102" target="z-LzonxKhmqKySFjynFF-4">
          <mxGeometry relative="1" as="geometry">
            <mxPoint x="560" y="150" as="sourcePoint" />
            <mxPoint x="720" y="150" as="targetPoint" />
          </mxGeometry>
        </mxCell>
        <mxCell id="z-LzonxKhmqKySFjynFF-104" value="1" style="resizable=0;html=1;whiteSpace=wrap;align=right;verticalAlign=bottom;" connectable="0" vertex="1" parent="z-LzonxKhmqKySFjynFF-103">
          <mxGeometry x="1" relative="1" as="geometry" />
        </mxCell>
        <mxCell id="z-LzonxKhmqKySFjynFF-105" value="" style="endArrow=none;html=1;rounded=0;entryX=0;entryY=1;entryDx=0;entryDy=0;exitX=0.5;exitY=0;exitDx=0;exitDy=0;" edge="1" parent="1" source="z-LzonxKhmqKySFjynFF-102" target="z-LzonxKhmqKySFjynFF-5">
          <mxGeometry relative="1" as="geometry">
            <mxPoint x="560" y="150" as="sourcePoint" />
            <mxPoint x="720" y="150" as="targetPoint" />
          </mxGeometry>
        </mxCell>
        <mxCell id="z-LzonxKhmqKySFjynFF-106" value="N" style="resizable=0;html=1;whiteSpace=wrap;align=right;verticalAlign=bottom;" connectable="0" vertex="1" parent="z-LzonxKhmqKySFjynFF-105">
          <mxGeometry x="1" relative="1" as="geometry" />
        </mxCell>
        <mxCell id="z-LzonxKhmqKySFjynFF-107" value="Have" style="shape=rhombus;perimeter=rhombusPerimeter;whiteSpace=wrap;html=1;align=center;rotation=-30;" vertex="1" parent="1">
          <mxGeometry x="410" y="150" width="120" height="60" as="geometry" />
        </mxCell>
        <mxCell id="z-LzonxKhmqKySFjynFF-108" value="" style="endArrow=none;html=1;rounded=0;exitX=0;exitY=0.5;exitDx=0;exitDy=0;entryX=1;entryY=0;entryDx=0;entryDy=0;" edge="1" parent="1" source="z-LzonxKhmqKySFjynFF-107" target="z-LzonxKhmqKySFjynFF-3">
          <mxGeometry relative="1" as="geometry">
            <mxPoint x="560" y="150" as="sourcePoint" />
            <mxPoint x="720" y="150" as="targetPoint" />
          </mxGeometry>
        </mxCell>
        <mxCell id="z-LzonxKhmqKySFjynFF-109" value="1" style="resizable=0;html=1;whiteSpace=wrap;align=right;verticalAlign=bottom;" connectable="0" vertex="1" parent="z-LzonxKhmqKySFjynFF-108">
          <mxGeometry x="1" relative="1" as="geometry" />
        </mxCell>
        <mxCell id="z-LzonxKhmqKySFjynFF-110" value="" style="endArrow=none;html=1;rounded=0;exitX=1;exitY=0.5;exitDx=0;exitDy=0;entryX=0;entryY=0.25;entryDx=0;entryDy=0;" edge="1" parent="1" source="z-LzonxKhmqKySFjynFF-107" target="z-LzonxKhmqKySFjynFF-5">
          <mxGeometry relative="1" as="geometry">
            <mxPoint x="560" y="150" as="sourcePoint" />
            <mxPoint x="720" y="150" as="targetPoint" />
          </mxGeometry>
        </mxCell>
        <mxCell id="z-LzonxKhmqKySFjynFF-111" value="N" style="resizable=0;html=1;whiteSpace=wrap;align=right;verticalAlign=bottom;" connectable="0" vertex="1" parent="z-LzonxKhmqKySFjynFF-110">
          <mxGeometry x="1" relative="1" as="geometry" />
        </mxCell>
        <mxCell id="z-LzonxKhmqKySFjynFF-112" value="Have" style="shape=rhombus;perimeter=rhombusPerimeter;whiteSpace=wrap;html=1;align=center;rotation=-45;" vertex="1" parent="1">
          <mxGeometry x="1040" y="100" width="72.5" height="60" as="geometry" />
        </mxCell>
        <mxCell id="z-LzonxKhmqKySFjynFF-113" value="" style="endArrow=none;html=1;rounded=0;entryX=1;entryY=1;entryDx=0;entryDy=0;exitX=0.5;exitY=0;exitDx=0;exitDy=0;" edge="1" parent="1" source="z-LzonxKhmqKySFjynFF-112" target="z-LzonxKhmqKySFjynFF-5">
          <mxGeometry relative="1" as="geometry">
            <mxPoint x="850" y="150" as="sourcePoint" />
            <mxPoint x="1010" y="150" as="targetPoint" />
          </mxGeometry>
        </mxCell>
        <mxCell id="z-LzonxKhmqKySFjynFF-114" value="1" style="resizable=0;html=1;whiteSpace=wrap;align=right;verticalAlign=bottom;" connectable="0" vertex="1" parent="z-LzonxKhmqKySFjynFF-113">
          <mxGeometry x="1" relative="1" as="geometry" />
        </mxCell>
        <mxCell id="z-LzonxKhmqKySFjynFF-115" value="" style="endArrow=none;html=1;rounded=0;entryX=0;entryY=0;entryDx=0;entryDy=0;exitX=0.5;exitY=1;exitDx=0;exitDy=0;" edge="1" parent="1" source="z-LzonxKhmqKySFjynFF-112" target="z-LzonxKhmqKySFjynFF-6">
          <mxGeometry relative="1" as="geometry">
            <mxPoint x="850" y="150" as="sourcePoint" />
            <mxPoint x="1010" y="150" as="targetPoint" />
          </mxGeometry>
        </mxCell>
        <mxCell id="z-LzonxKhmqKySFjynFF-116" value="N" style="resizable=0;html=1;whiteSpace=wrap;align=right;verticalAlign=bottom;" connectable="0" vertex="1" parent="z-LzonxKhmqKySFjynFF-115">
          <mxGeometry x="1" relative="1" as="geometry" />
        </mxCell>
        <mxCell id="z-LzonxKhmqKySFjynFF-118" value="" style="endArrow=none;html=1;rounded=0;exitX=0;exitY=0.5;exitDx=0;exitDy=0;entryX=1;entryY=0;entryDx=0;entryDy=0;" edge="1" parent="1" source="z-LzonxKhmqKySFjynFF-135" target="z-LzonxKhmqKySFjynFF-2">
          <mxGeometry relative="1" as="geometry">
            <mxPoint x="302.1700000000001" y="-81.78860279185596" as="sourcePoint" />
            <mxPoint x="480" y="-150" as="targetPoint" />
          </mxGeometry>
        </mxCell>
        <mxCell id="z-LzonxKhmqKySFjynFF-119" value="1" style="resizable=0;html=1;whiteSpace=wrap;align=right;verticalAlign=bottom;" connectable="0" vertex="1" parent="z-LzonxKhmqKySFjynFF-118">
          <mxGeometry x="1" relative="1" as="geometry" />
        </mxCell>
        <mxCell id="z-LzonxKhmqKySFjynFF-120" value="" style="endArrow=none;html=1;rounded=0;entryX=0.75;entryY=1;entryDx=0;entryDy=0;exitX=1;exitY=0.5;exitDx=0;exitDy=0;" edge="1" parent="1" source="z-LzonxKhmqKySFjynFF-135" target="z-LzonxKhmqKySFjynFF-7">
          <mxGeometry relative="1" as="geometry">
            <mxPoint x="357.1700000000001" y="-177.05139720814418" as="sourcePoint" />
            <mxPoint x="379.98" y="-160" as="targetPoint" />
            <Array as="points" />
          </mxGeometry>
        </mxCell>
        <mxCell id="z-LzonxKhmqKySFjynFF-121" value="N" style="resizable=0;html=1;whiteSpace=wrap;align=right;verticalAlign=bottom;" connectable="0" vertex="1" parent="z-LzonxKhmqKySFjynFF-120">
          <mxGeometry x="1" relative="1" as="geometry" />
        </mxCell>
        <mxCell id="z-LzonxKhmqKySFjynFF-122" value="Review" style="shape=ext;margin=3;double=1;whiteSpace=wrap;html=1;align=center;" vertex="1" parent="1">
          <mxGeometry x="765" y="610" width="160" height="80" as="geometry" />
        </mxCell>
        <mxCell id="z-LzonxKhmqKySFjynFF-123" value="Write&amp;nbsp;" style="shape=rhombus;double=1;perimeter=rhombusPerimeter;whiteSpace=wrap;html=1;align=center;" vertex="1" parent="1">
          <mxGeometry x="782.38" y="440" width="120" height="60" as="geometry" />
        </mxCell>
        <mxCell id="z-LzonxKhmqKySFjynFF-126" value="" style="endArrow=none;html=1;rounded=0;entryX=1;entryY=1;entryDx=0;entryDy=0;exitX=0.5;exitY=0;exitDx=0;exitDy=0;" edge="1" parent="1" source="z-LzonxKhmqKySFjynFF-123" target="z-LzonxKhmqKySFjynFF-4">
          <mxGeometry relative="1" as="geometry">
            <mxPoint x="460" y="370" as="sourcePoint" />
            <mxPoint x="620" y="370" as="targetPoint" />
          </mxGeometry>
        </mxCell>
        <mxCell id="z-LzonxKhmqKySFjynFF-127" value="N" style="resizable=0;html=1;whiteSpace=wrap;align=right;verticalAlign=bottom;" connectable="0" vertex="1" parent="z-LzonxKhmqKySFjynFF-126">
          <mxGeometry x="1" relative="1" as="geometry" />
        </mxCell>
        <mxCell id="z-LzonxKhmqKySFjynFF-128" value="" style="endArrow=none;html=1;rounded=0;exitX=0.5;exitY=1;exitDx=0;exitDy=0;entryX=0.5;entryY=0;entryDx=0;entryDy=0;" edge="1" parent="1" source="z-LzonxKhmqKySFjynFF-123" target="z-LzonxKhmqKySFjynFF-122">
          <mxGeometry relative="1" as="geometry">
            <mxPoint x="800" y="500" as="sourcePoint" />
            <mxPoint x="850" y="600" as="targetPoint" />
          </mxGeometry>
        </mxCell>
        <mxCell id="z-LzonxKhmqKySFjynFF-129" value="N" style="resizable=0;html=1;whiteSpace=wrap;align=right;verticalAlign=bottom;" connectable="0" vertex="1" parent="z-LzonxKhmqKySFjynFF-128">
          <mxGeometry x="1" relative="1" as="geometry" />
        </mxCell>
        <mxCell id="z-LzonxKhmqKySFjynFF-135" value="Have" style="shape=rhombus;perimeter=rhombusPerimeter;whiteSpace=wrap;html=1;align=center;rotation=0;" vertex="1" parent="1">
          <mxGeometry x="290" y="-140" width="120" height="60" as="geometry" />
        </mxCell>
        <mxCell id="z-LzonxKhmqKySFjynFF-136" value="" style="endArrow=none;html=1;rounded=0;entryX=1;entryY=1;entryDx=0;entryDy=0;exitX=0;exitY=0.5;exitDx=0;exitDy=0;" edge="1" parent="1" source="z-LzonxKhmqKySFjynFF-123" target="z-LzonxKhmqKySFjynFF-2">
          <mxGeometry relative="1" as="geometry">
            <mxPoint x="780" y="470" as="sourcePoint" />
            <mxPoint x="610" y="90" as="targetPoint" />
            <Array as="points">
              <mxPoint x="560" y="480" />
              <mxPoint x="250" y="190" />
            </Array>
          </mxGeometry>
        </mxCell>
        <mxCell id="z-LzonxKhmqKySFjynFF-137" value="N" style="resizable=0;html=1;whiteSpace=wrap;align=right;verticalAlign=bottom;" connectable="0" vertex="1" parent="z-LzonxKhmqKySFjynFF-136">
          <mxGeometry x="1" relative="1" as="geometry" />
        </mxCell>
      </root>
    </mxGraphModel>
  </diagram>
</mxfile>
